<?xml version="1.0" standalone="no"?>
<!DOCTYPE svg PUBLIC "-//W3C//DTD SVG 20010904//EN"
 "http://www.w3.org/TR/2001/REC-SVG-20010904/DTD/svg10.dtd">
<svg version="1.0" xmlns="http://www.w3.org/2000/svg"
 width="180.000000pt" height="180.000000pt" viewBox="0 0 180.000000 180.000000"
 preserveAspectRatio="xMidYMid meet">

<g transform="translate(0.000000,180.000000) scale(0.100000,-0.100000)"
fill="#000000" stroke="none">
<path d="M0 1772 c0 -27 1 -28 58 -27 31 1 75 5 96 10 27 5 37 4 32 -3 -10
-17 -73 -34 -131 -35 l-55 -2 0 -94 c0 -75 3 -92 14 -88 7 3 26 -1 40 -9 15
-7 30 -13 34 -13 30 5 43 -4 49 -31 4 -22 9 -28 18 -20 12 10 25 4 25 -12 0
-5 -4 -7 -9 -4 -5 3 -14 -1 -20 -8 -10 -11 -8 -15 6 -18 12 -3 3 -9 -25 -18
-46 -15 -52 -12 -55 19 -1 11 -6 21 -12 21 -5 1 1 10 14 20 13 11 19 20 14 20
-5 0 -14 -5 -21 -12 -6 -6 -14 -9 -17 -6 -3 3 9 12 27 21 l33 16 -59 0 -58 -1
4 -110 c3 -85 8 -113 20 -122 9 -6 17 -20 19 -31 3 -14 19 -25 52 -35 34 -11
45 -18 37 -26 -10 -10 -85 -4 -94 7 -1 2 -10 15 -19 29 -16 23 -17 -13 -17
-593 l0 -617 900 0 900 0 0 620 0 620 -24 -11 c-13 -6 -30 -23 -37 -38 -7 -14
-30 -46 -50 -71 -42 -53 -48 -75 -59 -235 -4 -66 -12 -143 -18 -170 -16 -77
-83 -234 -116 -272 -20 -23 -56 -31 -56 -13 0 6 -10 10 -22 10 -19 0 -17 3 12
17 46 22 72 53 111 131 30 58 31 65 16 73 -21 12 -23 33 -2 26 19 -8 38 58 25
83 -5 10 -6 20 -3 24 3 3 2 6 -4 6 -6 0 -8 18 -6 43 3 25 -2 57 -11 80 -17 40
-30 47 -40 21 -3 -8 -10 -13 -15 -9 -5 3 -12 1 -16 -5 -3 -5 -13 -10 -22 -10
-15 0 -14 2 0 18 22 24 13 32 -26 22 -18 -5 -58 -11 -89 -15 -34 -4 -58 -11
-58 -18 0 -7 -7 -3 -15 7 -10 14 -15 45 -15 99 0 66 -2 78 -14 68 -10 -9 -11
-23 -4 -62 5 -28 8 -63 6 -77 -3 -24 -6 -27 -38 -24 -47 5 -120 39 -141 66
-10 12 -36 29 -59 36 -45 15 -61 36 -39 51 8 5 58 8 111 7 53 -2 94 1 89 5 -4
4 -52 8 -107 9 -82 1 -106 -2 -132 -17 l-32 -19 0 -337 0 -337 -27 -18 c-30
-19 -113 -36 -113 -22 0 4 10 8 23 8 50 0 60 19 65 128 4 94 3 100 -14 98 -11
-2 -28 2 -39 8 -18 9 -17 11 15 16 l35 5 0 239 c0 258 2 248 -57 250 -22 1
-28 5 -24 19 2 9 -1 17 -8 17 -17 0 -46 37 -46 60 0 12 10 25 24 31 16 8 22
17 19 30 -4 15 0 19 19 19 13 0 34 -7 46 -16 12 -8 26 -13 31 -10 10 6 25 -90
16 -104 -3 -6 -1 -10 4 -10 7 0 11 31 11 82 0 77 -1 80 -18 65 -12 -11 -22
-13 -32 -7 -8 5 -31 10 -50 10 -31 0 -35 3 -37 28 -1 15 -3 41 -4 57 -1 17 10
57 26 90 17 37 28 78 29 109 1 48 0 50 -32 59 -22 7 -40 6 -57 -1 -35 -16 -31
-6 5 13 16 8 57 18 90 22 59 6 75 15 44 27 -8 3 -12 11 -9 17 5 7 31 8 79 4
77 -7 141 6 239 50 l52 23 -602 1 -603 1 0 -28z m445 -2 c-3 -5 -19 -10 -36
-10 -16 0 -29 5 -29 10 0 6 16 10 36 10 21 0 33 -4 29 -10z m169 -56 c9 -8 16
-22 16 -31 0 -20 -55 -73 -75 -73 -8 0 -15 -4 -15 -10 0 -5 -5 -10 -11 -10 -7
0 -9 12 -6 33 2 17 0 43 -5 56 -5 14 -7 30 -4 38 7 19 81 17 100 -3z m-4 -139
c8 -9 9 -28 5 -56 l-7 -42 30 6 c26 5 31 2 42 -24 8 -18 11 -52 7 -89 -3 -40
-1 -60 6 -60 7 0 7 -4 -1 -12 -9 -9 -12 -77 -12 -244 0 -197 -2 -233 -16 -244
-17 -15 -106 -31 -98 -18 3 4 16 8 29 8 14 0 29 8 35 19 13 25 13 361 0 381
-9 13 -10 13 -11 0 0 -10 -3 -8 -8 5 -5 13 -18 20 -40 21 -18 1 -40 8 -48 16
-21 21 4 38 69 48 l53 8 -65 1 c-36 0 -70 -3 -77 -7 -7 -4 -16 -37 -21 -72 -9
-62 -10 -63 -11 -19 -1 42 -3 47 -26 47 -13 0 -23 -4 -20 -7 4 -8 -45 -61 -89
-98 -15 -13 -25 -27 -21 -33 3 -6 -4 -10 -16 -10 -26 0 -59 -26 -59 -47 0 -7
-5 -13 -11 -13 -6 0 -9 -17 -6 -46 6 -52 14 -65 27 -44 9 14 14 7 11 -14 -1
-5 10 -6 25 -3 27 5 88 -15 98 -32 3 -5 41 -17 83 -26 43 -10 83 -24 90 -32 6
-8 14 -14 17 -14 19 2 26 0 26 -10 0 -7 -8 -9 -22 -4 -13 4 -45 13 -72 21 -28
8 -58 17 -69 20 -13 4 -17 2 -13 -5 7 -11 -63 -9 -96 4 -13 5 -15 2 -11 -17
l5 -23 -24 25 c-14 14 -24 28 -22 31 2 3 -8 4 -21 1 -32 -6 -44 -46 -22 -70 9
-10 14 -27 11 -38 -3 -12 1 -28 10 -37 9 -8 16 -20 16 -25 0 -6 9 -8 20 -5 15
4 20 0 20 -16 0 -12 -4 -19 -10 -16 -5 3 -10 2 -10 -3 0 -6 12 -13 26 -16 63
-16 97 -61 52 -68 l-23 -3 22 -13 c12 -6 37 -14 55 -16 18 -3 35 -5 38 -7 3
-1 8 -1 12 0 7 1 4 -34 -6 -65 -8 -27 15 -48 44 -39 15 5 20 2 20 -12 0 -11
-5 -24 -12 -31 -20 -20 14 -46 59 -44 44 2 73 -5 73 -18 0 -5 -5 -21 -11 -37
-7 -20 -12 -24 -18 -14 -6 9 -11 10 -15 2 -4 -6 -2 -11 3 -11 6 0 11 -8 11
-17 1 -38 46 -74 139 -109 l36 -14 -40 6 c-122 17 -380 100 -430 139 -38 28
-145 157 -145 174 0 5 -8 15 -18 21 -11 7 -13 13 -6 16 13 6 7 44 -7 44 -5 0
-9 7 -9 15 0 8 -4 15 -10 15 -5 0 -10 8 -10 18 0 13 -2 14 -9 4 -5 -8 -17 -11
-34 -7 -14 4 -35 2 -46 -5 -14 -7 -21 -7 -21 0 0 5 7 10 15 10 8 0 15 6 15 13
0 8 8 14 17 14 10 -1 32 0 48 1 l30 2 -1 73 c-3 162 -4 167 -16 164 -7 -1 -13
5 -13 13 0 8 -11 25 -25 37 -21 19 -23 24 -10 33 8 5 25 10 38 10 15 0 22 6
22 19 0 11 5 23 10 26 6 3 10 16 10 28 0 12 9 49 19 82 18 59 18 59 -2 87 -11
15 -33 32 -49 37 -37 13 -35 18 6 13 18 -2 37 1 40 7 4 6 0 11 -8 11 -9 0 -16
5 -16 10 0 6 3 9 8 8 13 -2 107 45 119 61 7 9 13 28 13 44 0 20 5 27 20 27 11
0 20 5 20 10 0 6 4 10 10 10 5 0 26 11 47 25 20 14 46 25 58 23 14 -2 29 9 48
34 15 21 27 42 27 47 0 8 63 39 81 40 4 1 12 -6 19 -14z m-162 -434 c11 -7 11
-9 0 -13 -7 -3 -19 1 -26 8 -10 11 -10 14 0 14 7 0 19 -4 26 -9z m47 -1 c3 -5
2 -10 -4 -10 -5 0 -13 5 -16 10 -3 6 -2 10 4 10 5 0 13 -4 16 -10z m83 -7
c-10 -2 -28 -2 -40 0 -13 2 -5 4 17 4 22 1 32 -1 23 -4z m785 -230 c-7 -2 -19
-2 -25 0 -7 3 -2 5 12 5 14 0 19 -2 13 -5z m-118 -13 c-3 -5 -11 -10 -16 -10
-6 0 -7 5 -4 10 3 6 11 10 16 10 6 0 7 -4 4 -10z m-91 -98 c16 -7 27 -15 24
-18 -3 -2 -18 1 -34 7 -16 7 -69 16 -119 20 l-90 7 95 -2 c52 -1 108 -8 124
-14z m343 -33 c-9 -6 -15 -14 -12 -20 4 -5 -1 -9 -9 -9 -9 0 -16 -4 -16 -8 0
-14 -68 -32 -72 -20 -2 6 -11 4 -20 -6 -20 -19 -48 -21 -48 -3 0 8 -3 7 -10
-3 -7 -11 -12 -12 -21 -3 -8 8 -5 19 12 42 12 16 26 28 30 26 4 -3 18 -1 31 4
33 14 159 14 135 0z m60 5 c-3 -3 -12 -4 -19 -1 -8 3 -5 6 6 6 11 1 17 -2 13
-5z m-343 -28 c17 -18 27 -44 36 -93 25 -153 -42 -266 -165 -278 l-50 -5 42
11 c54 13 97 55 112 111 15 52 11 134 -6 131 -6 -1 -17 4 -23 12 -8 10 -9 15
-2 15 6 0 9 7 5 15 -9 25 -28 11 -28 -21 0 -21 -5 -29 -20 -31 -11 -2 -14 0
-7 3 17 8 15 24 -4 24 -8 0 -13 4 -9 9 5 9 -17 15 -80 24 -11 2 -29 8 -40 15
-16 9 1 11 93 12 121 0 117 -2 115 58 -1 17 3 15 31 -12z m305 -35 c7 -5 9
-11 5 -14 -5 -3 -15 1 -22 9 -14 16 -5 18 17 5z m-469 -82 c0 -6 9 -8 21 -4
15 5 19 4 15 -4 -12 -19 -86 -11 -86 10 0 5 11 9 25 9 14 0 25 -5 25 -11z
m318 -26 c-10 -2 -28 -2 -40 0 -13 2 -5 4 17 4 22 1 32 -1 23 -4z m-848 -89
c0 -8 -5 -12 -10 -9 -6 4 -8 11 -5 16 9 14 15 11 15 -7z m267 -61 c-8 -7 -56
20 -51 28 3 5 16 1 30 -7 13 -9 23 -19 21 -21z m-150 -3 c3 -11 10 -20 17 -21
6 0 2 -4 -9 -8 -24 -10 -44 7 -37 31 6 24 23 23 29 -2z m804 -59 c-14 -25
-111 -112 -152 -135 -31 -18 -29 -15 16 30 28 28 65 67 83 87 36 40 71 52 53
18z"/>
<path d="M615 1240 c-3 -5 -1 -10 4 -10 6 0 11 5 11 10 0 6 -2 10 -4 10 -3 0
-8 -4 -11 -10z"/>
<path d="M1270 1785 c-22 -12 -22 -14 -5 -14 11 1 43 7 70 14 l50 13 -45 0
c-25 1 -56 -5 -70 -13z"/>
<path d="M1500 1780 c-132 -20 -220 -47 -220 -67 0 -7 6 -13 14 -13 7 0 43
-20 80 -44 37 -25 89 -50 115 -56 39 -9 61 -25 120 -84 44 -44 69 -76 62 -80
-7 -5 -2 -17 14 -34 14 -15 25 -32 25 -39 0 -16 15 -16 42 -2 19 10 20 9 14
-14 -3 -14 -2 -28 3 -32 6 -3 4 -17 -5 -33 -16 -31 -18 -52 -5 -52 5 0 12 11
15 25 4 14 11 25 16 25 6 0 10 97 10 260 l0 260 -92 -1 c-51 -1 -145 -9 -208
-19z"/>
<path d="M1580 1520 c0 -5 5 -10 11 -10 5 0 7 5 4 10 -3 6 -8 10 -11 10 -2 0
-4 -4 -4 -10z"/>
</g>
</svg>
